<?xml version="1.0" standalone="no"?>
<!DOCTYPE svg PUBLIC "-//W3C//DTD SVG 20010904//EN"
 "http://www.w3.org/TR/2001/REC-SVG-20010904/DTD/svg10.dtd">
<svg version="1.0" xmlns="http://www.w3.org/2000/svg"
 width="512.000000pt" height="512.000000pt" viewBox="0 0 512.000000 512.000000"
 preserveAspectRatio="xMidYMid meet">

<g transform="translate(0.000000,512.000000) scale(0.100000,-0.100000)"
fill="#000000" stroke="none">
<path d="M470 3365 l0 -345 165 0 165 0 0 75 0 75 -90 0 -90 0 -2 268 -3 267
-72 3 -73 3 0 -346z"/>
<path d="M1149 3697 c-103 -29 -181 -97 -228 -197 -37 -79 -36 -192 1 -272
101 -218 386 -270 553 -101 162 165 118 442 -88 543 -74 36 -168 47 -238 27z
m169 -163 c68 -34 105 -93 105 -168 0 -149 -157 -238 -286 -163 -48 28 -97
107 -97 155 0 78 61 167 130 189 56 18 93 15 148 -13z"/>
<path d="M3030 3365 l0 -345 75 0 75 0 0 345 0 345 -75 0 -75 0 0 -345z"/>
<path d="M3330 3365 l0 -345 75 0 75 0 2 191 3 191 115 -183 116 -184 72 -3
72 -3 0 341 0 340 -75 0 -75 0 -2 -187 -3 -188 -118 188 -119 187 -69 0 -69 0
0 -345z"/>
<path d="M4261 3694 c-148 -40 -251 -175 -251 -329 0 -291 356 -451 552 -248
57 59 81 123 86 231 l4 92 -156 0 -157 0 3 -72 3 -73 73 -3 c84 -3 90 -13 40
-68 -78 -84 -222 -54 -279 58 -16 32 -20 54 -17 100 11 146 168 221 297 140
29 -17 55 -32 59 -32 4 0 16 15 28 33 11 17 28 44 38 59 l18 27 -56 36 c-57
36 -148 65 -201 64 -16 0 -54 -7 -84 -15z"/>
<path d="M1747 3377 c-65 -171 -119 -316 -120 -320 -2 -9 107 -57 127 -57 6 0
24 34 39 75 l28 75 109 0 108 0 27 -75 c15 -41 33 -75 38 -75 22 0 127 45 127
55 0 5 -53 150 -117 322 l-118 313 -65 0 -65 0 -118 -313z m209 -9 c10 -29 21
-56 22 -60 2 -4 -20 -8 -48 -8 -46 0 -51 2 -45 18 4 9 14 36 22 60 8 23 18 42
22 42 4 0 16 -23 27 -52z"/>
<path d="M2380 3354 l0 -336 138 4 c126 3 142 6 194 31 66 32 101 70 137 147
23 48 26 68 26 160 0 99 -2 110 -33 172 -62 127 -127 158 -329 158 l-133 0 0
-336z m279 171 c64 -33 91 -171 51 -263 -27 -62 -55 -82 -126 -89 l-54 -6 0
187 0 186 50 0 c28 0 64 -7 79 -15z"/>
<path d="M0 2535 l0 -225 75 0 75 0 0 150 0 150 2410 0 2410 0 0 -525 0 -525
-150 0 -150 0 0 -75 0 -75 225 0 225 0 0 675 0 675 -2560 0 -2560 0 0 -225z"/>
<path d="M300 2085 l0 -375 1725 0 1725 0 0 375 0 375 -1725 0 -1725 0 0 -375z
m560 218 c0 -3 -37 -104 -82 -225 l-81 -218 -124 0 -123 0 0 225 0 225 205 0
c113 0 205 -3 205 -7z m600 0 c0 -3 -37 -104 -82 -225 l-81 -218 -220 0 c-205
0 -219 1 -212 18 4 9 40 107 81 216 42 110 77 204 80 208 6 10 434 11 434 1z
m600 0 c0 -3 -37 -104 -82 -225 l-81 -218 -220 0 c-205 0 -219 1 -212 18 4 9
40 107 81 216 42 110 77 204 80 208 6 10 434 11 434 1z m600 0 c0 -3 -37 -104
-82 -225 l-81 -218 -220 0 c-205 0 -219 1 -212 18 4 9 40 107 81 216 42 110
77 204 80 208 6 10 434 11 434 1z m600 0 c0 -3 -37 -104 -82 -225 l-81 -218
-220 0 c-205 0 -219 1 -212 18 4 9 40 107 81 216 42 110 77 204 80 208 6 10
434 11 434 1z m340 -218 l0 -225 -171 0 c-159 0 -171 1 -164 18 4 9 40 107 81
216 42 110 77 204 80 208 3 4 43 8 90 8 l84 0 0 -225z"/>
<path d="M4370 2385 l0 -75 75 0 75 0 0 75 0 75 -75 0 -75 0 0 -75z"/>
<path d="M4670 2385 l0 -75 75 0 75 0 0 75 0 75 -75 0 -75 0 0 -75z"/>
<path d="M0 1785 l0 -375 2260 0 2260 0 0 75 0 75 -2185 0 -2185 0 0 300 0
300 -75 0 -75 0 0 -375z"/>
</g>
</svg>
